<?xml version="1.0" encoding="UTF-8" standalone="no"?>
<!-- Created with Inkscape (http://www.inkscape.org/) -->

<svg
   xmlns:dc="http://purl.org/dc/elements/1.1/"
   xmlns:cc="http://creativecommons.org/ns#"
   xmlns:rdf="http://www.w3.org/1999/02/22-rdf-syntax-ns#"
   xmlns:svg="http://www.w3.org/2000/svg"
   xmlns="http://www.w3.org/2000/svg"
   xmlns:sodipodi="http://sodipodi.sourceforge.net/DTD/sodipodi-0.dtd"
   xmlns:inkscape="http://www.inkscape.org/namespaces/inkscape"
   width="26.239262"
   height="32"
   viewBox="0 0 26.239261 31.999998"
   id="svg29029"
   version="1.1"
   inkscape:version="0.91 r13725"
   sodipodi:docname="icon-inclusioneers.svg"
   inkscape:export-filename="/home/tom/Downloads/inclusioneers_icon.png"
   inkscape:export-xdpi="119.04919"
   inkscape:export-ydpi="119.04919">
  <defs
     id="defs29031" />
  <sodipodi:namedview
     id="base"
     pagecolor="#ffffff"
     bordercolor="#666666"
     borderopacity="1.0"
     inkscape:pageopacity="0.0"
     inkscape:pageshadow="2"
     inkscape:zoom="0.95795441"
     inkscape:cx="118.49188"
     inkscape:cy="1.2859336"
     inkscape:document-units="px"
     inkscape:current-layer="layer1"
     showgrid="false"
     inkscape:window-width="1920"
     inkscape:window-height="1027"
     inkscape:window-x="0"
     inkscape:window-y="27"
     inkscape:window-maximized="1"
     fit-margin-top="0"
     fit-margin-left="0"
     fit-margin-right="0"
     fit-margin-bottom="0"
     units="px" />
  <metadata
     id="metadata29034">
    <rdf:RDF>
      <cc:Work
         rdf:about="">
        <dc:format>image/svg+xml</dc:format>
        <dc:type
           rdf:resource="http://purl.org/dc/dcmitype/StillImage" />
        <dc:title></dc:title>
      </cc:Work>
    </rdf:RDF>
  </metadata>
  <g
     inkscape:label="Layer 1"
     inkscape:groupmode="layer"
     id="layer1"
     transform="translate(-232.70981,-697.85628)">
    <path
       sodipodi:nodetypes="ccccccccc"
       d="m 245.09663,719.66219 0,-9.6572 c 0,-1.97526 -1.8548,-3.98722 -4.90791,-3.98722 l -0.0424,12.25362 -0.002,-0.008 c -0.002,-0.0768 -8e-4,-0.0334 0.001,0.008 0,1.17297 0.61126,1.46555 1.24047,1.46555 l 3.71004,0 z"
       style="opacity:1;fill:#ff0000"
       id="path3885-4-8-7-2"
       inkscape:connector-curvature="0" />
    <path
       inkscape:connector-curvature="0"
       id="path3869-2-1-6"
       style="opacity:1;fill:none;fill-opacity:1;fill-rule:nonzero"
       d="m 240.04825,705.26873 c 3.29464,0.28145 5.40199,2.20977 5.19926,4.2933 l 0,10.31109 0,0.0798 -3.96113,0 c -0.55224,0.0885 -1.27589,-0.31485 -1.32438,-1.56477 l 0.005,-13.04708 0.0819,-0.0725 z" />
    <path
       sodipodi:nodetypes="cccccccccccc"
       d="m 245.11357,719.69564 0,-9.65718 c 0,-1.97526 -1.8548,-3.98722 -4.90791,-3.98722 l -0.0424,12.25362 -0.002,-0.008 c -0.002,-0.0768 -8e-4,-0.0334 0.001,0.008 0,1.17296 0.61126,1.46555 1.24048,1.46555 l 3.71004,2e-5 7.38914,0.006 c 1.28027,0.006 2.05495,0.11456 2.27058,1.53678 l 0.84085,7.4881 c 1.52824,0.0298 2.76564,-0.2176 3.01609,-0.65704"
       style="opacity:1;fill:none;stroke:#000000;stroke-width:0.6347506;stroke-linecap:round;stroke-linejoin:round;stroke-miterlimit:4;stroke-dasharray:none;stroke-opacity:1"
       id="path3885-4-8-7"
       inkscape:connector-curvature="0" />
    <path
       d="m 245.96957,701.65091 c 0,1.92048 -1.55677,3.47715 -3.47726,3.47715 -1.9204,0 -3.47716,-1.55667 -3.47716,-3.47715 0,-1.92041 1.55676,-3.47726 3.47716,-3.47726 1.92049,0 3.47726,1.55685 3.47726,3.47726 z"
       style="opacity:1;fill:#ff0000;stroke:#000000;stroke-width:0.6347506;stroke-linecap:round;stroke-linejoin:miter;stroke-miterlimit:4;stroke-dasharray:none;stroke-opacity:1"
       id="path3909-6-7-5"
       inkscape:connector-curvature="0" />
    <path
       d="m 240.82793,713.83775 8.70562,0 c 0.48793,0 0.68254,-0.60745 0.0867,-0.60745 l -8.70562,0 c -0.48793,0 -0.68254,0.60745 -0.0867,0.60745"
       style="opacity:1;fill:#000000;fill-opacity:1;fill-rule:nonzero;stroke:none;stroke-width:0.36430764;stroke-opacity:1"
       id="path3913-5-9-3"
       inkscape:connector-curvature="0" />
    <path
       style="opacity:1;fill:#000000;fill-opacity:1;stroke:#000000;stroke-width:0.19912544;stroke-opacity:1"
       d="m 238.78331,709.6339 -1.33566,0.8417 0.0923,1.67518 c -0.66072,0.50728 -0.64226,0.51014 -1.14266,1.17608 l -1.76622,-0.0504 -0.75065,1.41155 0.88467,1.41619 c -0.25306,0.76347 -0.28035,0.86763 -0.37981,1.68706 l -1.57591,0.69359 0,1.45539 1.54673,0.85076 c 0.10832,0.4872 0.168,0.78221 0.36254,1.24318 l -0.82304,1.96091 0.78101,1.21424 1.7043,-0.10832 c 0.4176,0.52905 0.57901,0.68337 1.03824,1.00203 l 0.0738,1.87723 1.30529,0.76544 1.56248,-0.93408 c 0.57307,0.24205 0.9548,0.29517 1.53344,0.42195 l 0.8523,1.52249 1.45579,-0.016 0.94489,-1.60007 c 0.54942,-0.0526 0.7743,-0.13664 1.25482,-0.33352 l 1.76407,0.83172 1.35083,-0.84132 -0.0477,-1.76904 c 0.48632,-0.35102 0.61394,-0.52193 1.02813,-1.05187 l 1.7903,0.02 0.7958,-1.47227 -0.59473,-1.41814 c 0.25261,-0.65952 0.47131,-1.68387 0.53755,-2.34195 l -2.10993,0.01 c -0.31304,3.901 -3.56846,6.90816 -7.482,6.91144 -4.14892,-1e-5 -7.51229,-3.36336 -7.51231,-7.5123 0.003,-2.96625 1.75323,-5.65234 4.46438,-6.85584 l -0.1888,-1.94989 z"
       id="path27946-6"
       inkscape:connector-curvature="0"
       sodipodi:nodetypes="cccccccccccccccccccccccccccccccccccccc" />
  </g>
</svg>
