<?xml version="1.0" encoding="UTF-8" standalone="no"?>
<!-- Created with Inkscape (http://www.inkscape.org/) -->

<svg
   xmlns:dc="http://purl.org/dc/elements/1.1/"
   xmlns:cc="http://creativecommons.org/ns#"
   xmlns:rdf="http://www.w3.org/1999/02/22-rdf-syntax-ns#"
   xmlns:svg="http://www.w3.org/2000/svg"
   xmlns="http://www.w3.org/2000/svg"
   xmlns:sodipodi="http://sodipodi.sourceforge.net/DTD/sodipodi-0.dtd"
   xmlns:inkscape="http://www.inkscape.org/namespaces/inkscape"
   width="212.55183"
   height="60.000008"
   viewBox="0 0 212.55183 60.000004"
   id="svg29029"
   version="1.1"
   inkscape:version="0.91 r13725"
   sodipodi:docname="logo-inclusioneers.svg">
  <defs
     id="defs29031" />
  <sodipodi:namedview
     id="base"
     pagecolor="#ffffff"
     bordercolor="#666666"
     borderopacity="1.0"
     inkscape:pageopacity="0.0"
     inkscape:pageshadow="2"
     inkscape:zoom="0.98994949"
     inkscape:cx="265.75637"
     inkscape:cy="230.50577"
     inkscape:document-units="px"
     inkscape:current-layer="layer1"
     showgrid="false"
     inkscape:window-width="1920"
     inkscape:window-height="1027"
     inkscape:window-x="0"
     inkscape:window-y="27"
     inkscape:window-maximized="1"
     fit-margin-top="10"
     fit-margin-left="0"
     fit-margin-right="0"
     fit-margin-bottom="0"
     units="px" />
  <metadata
     id="metadata29034">
    <rdf:RDF>
      <cc:Work
         rdf:about="">
        <dc:format>image/svg+xml</dc:format>
        <dc:type
           rdf:resource="http://purl.org/dc/dcmitype/StillImage" />
        <dc:title></dc:title>
      </cc:Work>
    </rdf:RDF>
  </metadata>
  <g
     inkscape:label="Layer 1"
     inkscape:groupmode="layer"
     id="layer1"
     transform="translate(-232.70988,-669.85625)">
    <path
       sodipodi:nodetypes="ccccccccc"
       d="m 252.06412,713.92803 0,-15.08938 c 0,-3.08634 -2.89812,-6.23004 -7.66862,-6.23004 l -0.0662,19.1463 -0.003,-0.0127 c -0.003,-0.11996 -0.001,-0.0521 0.002,0.0126 0,1.83277 0.95508,2.28993 1.93825,2.28993 l 5.79693,10e-6 z"
       style="opacity:1;fill:#ff0000"
       id="path3885-4-8-7-2"
       inkscape:connector-curvature="0" />
    <path
       inkscape:connector-curvature="0"
       id="path3869-2-1-6"
       style="opacity:1;fill:none;fill-opacity:1;fill-rule:nonzero"
       d="m 244.17603,691.43822 c 5.14788,0.43977 8.44063,3.45279 8.12384,6.70832 l 0,16.11107 0,0.12466 -6.18928,0 c -0.86289,0.13826 -1.99355,-0.49197 -2.06934,-2.44497 l 0.007,-20.38608 0.12813,-0.113 z" />
    <path
       sodipodi:nodetypes="cccccccccccc"
       d="m 252.09059,713.98032 0,-15.08938 c 0,-3.08634 -2.89812,-6.23004 -7.66862,-6.23004 l -0.0662,19.14631 -0.003,-0.0127 c -0.003,-0.11996 -0.001,-0.0521 0.002,0.0126 0,1.83278 0.95507,2.28993 1.93825,2.28993 l 5.79692,10e-6 11.54553,0.009 c 2.00046,0.009 3.21087,0.17904 3.54783,2.40124 l 1.31379,11.70015 c 2.38789,0.0465 4.32133,-0.34 4.71267,-1.02661"
       style="opacity:1;fill:none;stroke:#000000;stroke-width:0.99179876;stroke-linecap:round;stroke-linejoin:round;stroke-miterlimit:4;stroke-dasharray:none;stroke-opacity:1"
       id="path3885-4-8-7"
       inkscape:connector-curvature="0" />
    <path
       d="m 253.4281,685.78536 c 0,3.00077 -2.43246,5.43309 -5.43322,5.43309 -3.00062,0 -5.43308,-2.43232 -5.43308,-5.43309 0,-3.00061 2.43246,-5.43321 5.43308,-5.43321 3.00076,0 5.43322,2.4326 5.43322,5.43321 z"
       style="opacity:1;fill:#ff0000;stroke:#000000;stroke-width:0.99179876;stroke-linecap:round;stroke-linejoin:miter;stroke-miterlimit:4;stroke-dasharray:none;stroke-opacity:1"
       id="path3909-6-7-5"
       inkscape:connector-curvature="0" />
    <path
       d="m 245.39428,704.82736 13.60253,0 c 0.76241,0 1.06647,-0.94916 0.13559,-0.94916 l -13.60253,0 c -0.76241,0 -1.06646,0.94916 -0.13559,0.94916"
       style="opacity:1;fill:#000000;fill-opacity:1;fill-rule:nonzero;stroke:none;stroke-width:0.36430764;stroke-opacity:1"
       id="path3913-5-9-3"
       inkscape:connector-curvature="0" />
    <path
       sodipodi:nodetypes="cscccscsscscscsssssscsscscscscc"
       d="m 264.04475,697.16976 c 1.8677,-0.36398 2.91864,-0.54611 3.15387,-0.54611 0.12904,0 0.22904,-0.25007 0.29938,0.54293 0.0705,0.79271 0.0232,0.15854 0.15249,0.15854 -0.12934,0 0.50209,-0.40784 1.89386,-1.2246 1.39208,-0.8163 2.61032,-1.2243 3.65596,-1.2243 1.49146,0 2.73664,0.35217 3.73509,1.05698 1.11568,0.81041 1.6736,1.93789 1.6736,3.38261 l 0,5.62047 c 0,0.76365 0.006,1.90581 0.0178,3.42662 0.0115,1.52142 0.0176,2.66343 0.0176,3.42708 0,0.31693 -0.16459,0.49891 -0.49332,0.54582 -0.32888,0.0469 -1.18648,0.0705 -2.57219,0.0705 -1.48013,0 -2.39627,-0.0351 -2.7486,-0.1056 -0.35232,-0.0703 -0.52856,-0.31088 -0.52856,-0.72251 0,-0.55186 0.0177,-1.38572 0.0529,-2.5017 0.0352,-1.11569 0.0528,-1.95589 0.0528,-2.51941 0,-0.43417 -0.0118,-1.08346 -0.0352,-1.94666 -0.0234,-0.86335 -0.0352,-1.51248 -0.0352,-1.94696 0,-1.609 -0.69891,-2.41381 -2.09657,-2.41381 -0.45807,0 -0.99269,0.19999 -1.60326,0.59922 -0.65807,0.44642 -0.98664,0.88695 -0.98664,1.32112 l 0,9.51409 c 0,0.38773 -0.18229,0.60481 -0.54627,0.65172 -0.41118,0.0469 -1.25078,0.0705 -2.5194,0.0705 -1.37422,0 -2.26692,-0.0351 -2.67794,-0.1056 -0.36413,-0.0587 -0.54612,-0.25234 -0.54612,-0.58137 0,-0.91615 0.006,-2.29611 0.0176,-4.14036 0.0115,-1.84394 0.0177,-3.22995 0.0177,-4.1579 0,-2.92468 -0.082,-4.19013 -0.42555,-5.86093 0.85458,-0.0848 1.84107,-0.21429 3.07429,-0.39038 z"
       style="opacity:1;fill:#000000;fill-opacity:1;fill-rule:nonzero;stroke:none;stroke-width:0.38897464;stroke-opacity:1"
       id="path3917-4-2-5"
       inkscape:connector-curvature="0" />
    <path
       d="m 292.872,700.77491 c -0.012,0 -0.3673,-0.0938 -1.06607,-0.28183 -0.6989,-0.18775 -1.26575,-0.28214 -1.70007,-0.28214 -1.04549,0 -1.87949,0.31436 -2.50185,0.94277 -0.62267,0.62842 -0.9337,1.46514 -0.9337,2.51048 0,1.08104 0.34038,1.92941 1.02174,2.54603 0.68107,0.61646 1.56802,0.92492 2.66039,0.92492 0.51663,0 1.09814,-0.13222 1.74426,-0.39651 0.6458,-0.26413 0.95139,-0.39634 0.91614,-0.39634 0.19954,0 0.45807,0.74595 0.7753,2.23771 0.26989,1.36257 0.40514,2.26677 0.40514,2.71304 0,0.44673 -0.72842,0.82811 -2.18478,1.14534 -1.12748,0.24658 -2.03773,0.36972 -2.73074,0.36972 -2.58415,0 -4.71597,-0.8688 -6.39548,-2.60729 -1.67965,-1.7382 -2.5194,-3.90527 -2.5194,-6.50137 0,-2.57221 0.84262,-4.73625 2.52817,-6.49245 1.68541,-1.75575 3.81451,-2.63392 6.38671,-2.63392 1.75,0 3.28851,0.37623 4.61598,1.12748 0.30543,0.1649 0.45807,0.32313 0.45807,0.47593 0,0.15264 -0.17608,0.84565 -0.52857,2.07888 -0.32887,1.18663 -0.54339,1.90278 -0.64293,2.14952 -0.10015,0.24674 -0.20272,0.37003 -0.30831,0.37003"
       style="opacity:1;fill:#000000;fill-opacity:1;fill-rule:nonzero;stroke:none;stroke-width:0.38897464;stroke-opacity:1"
       id="path3921-6-0-6"
       inkscape:connector-curvature="0" />
    <path
       d="m 302.13886,701.76162 c 0,3.2062 0.0115,5.66721 0.0351,7.38195 0,0.27035 0.0179,1.16531 0.0531,1.82308 0.0351,0.59891 0.26821,1.06288 0.26821,1.39161 0,0.24659 -0.14704,0.39363 -0.44037,0.44052 -0.52872,0.0938 -1.48012,0.14085 -2.85433,0.14085 -1.40948,0 -2.30792,-0.0471 -2.6955,-0.14085 -0.25853,-0.0587 -0.40527,-0.21723 -0.44053,-0.47592 l 0,-0.7573 c 0,-1.04549 -0.20392,-3.04132 -0.18017,-5.1264 0.0234,-2.08477 0.0352,-3.644 0.0352,-4.67754 0,-4.93337 0.006,-7.18229 0.0176,-6.74796 -0.0352,-2.5958 -0.18228,-4.83337 -0.44052,-6.71271 -0.0236,-0.12905 -0.0352,-0.22903 -0.0352,-0.29938 0,-0.25839 0.15265,-0.38774 0.45823,-0.38774 l 6.28973,0 c 0.29348,0 0.42857,0.1233 0.40528,0.37004 l -0.0177,0.31708 c -0.30559,5.0742 -0.45808,9.56114 -0.45808,13.46067"
       style="opacity:1;fill:#000000;fill-opacity:1;fill-rule:nonzero;stroke:none;stroke-width:0.38897464;stroke-opacity:1"
       id="path3925-6-2-2"
       inkscape:connector-curvature="0" />
    <path
       d="m 323.06566,696.35251 c 0,0.86955 -0.0411,2.17312 -0.12329,3.91132 -0.0823,1.7385 -0.12329,3.04207 -0.12329,3.91147 0,0.8458 0.0292,2.11413 0.088,3.80543 0.0587,1.69145 0.0882,2.95433 0.0882,3.78803 0,0.31707 -0.14704,0.51676 -0.44053,0.59891 -0.44657,0.11755 -1.39192,0.17609 -2.83648,0.17609 -1.28042,0 -2.17328,-0.035 -2.67824,-0.10544 -0.22329,-0.0354 -0.36414,-0.17625 -0.42268,-0.42298 -0.0354,-0.35218 -0.0705,-0.70466 -0.10574,-1.05698 -0.059,-0.54007 -0.14084,-0.81057 -0.24673,-0.81057 0.16443,0 -0.42889,0.39939 -1.77935,1.19813 -1.35077,0.79891 -2.57825,1.19784 -3.68229,1.19784 -3.11257,0 -4.95681,-1.40312 -5.53212,-4.2107 -0.25854,-1.30358 -0.38758,-3.19472 -0.38758,-5.67297 0,-2.6781 0.21709,-4.79222 0.65186,-6.34268 0.12904,-0.48152 0.36988,-0.72236 0.72236,-0.72236 0.54006,0 1.36227,0.006 2.46661,0.0176 1.10388,0.0118 1.92609,0.0179 2.46645,0.0179 0.36382,0 0.54627,0.15265 0.54627,0.45793 0,0.0823 -0.0118,0.20558 -0.0352,0.37003 -0.24674,1.5975 -0.37003,3.21846 -0.37003,4.86256 0,2.04378 0.0645,3.4416 0.19379,4.19331 0.21148,1.29222 0.98058,1.93787 2.30806,1.93787 0.51677,0 1.07741,-0.22888 1.68253,-0.68695 0.60481,-0.45807 0.91887,-0.934 0.94261,-1.42716 0.0233,-0.43463 0.0352,-3.38261 0.0352,-8.84469 0,-0.38742 0.0291,-0.61646 0.0879,-0.68681 0.0707,-0.11724 0.28199,-0.17609 0.63432,-0.17609 0.57547,0 1.44184,0.006 2.59882,0.0174 1.15684,0.0118 2.02306,0.0176 2.59868,0.0176 0.35247,0 0.55776,0.0883 0.61661,0.26443 0.0234,0.0939 0.0352,0.23495 0.0352,0.42268"
       style="opacity:1;fill:#000000;fill-opacity:1;fill-rule:nonzero;stroke:none;stroke-width:0.38897464;stroke-opacity:1"
       id="path3929-3-3-9"
       inkscape:connector-curvature="0" />
    <path
       d="m 335.81548,698.11443 c 0,0.11755 -0.0879,0.27609 -0.26398,0.47563 -0.32918,-0.082 -0.65791,-0.1233 -0.98679,-0.1233 -0.69301,0 -1.27453,0.1528 -1.74425,0.45808 -0.56381,0.35263 -0.8455,0.85185 -0.8455,1.49751 0,0.41148 0.29953,0.934 0.89814,1.56816 0.90481,0.95125 1.46257,1.59176 1.67391,1.92033 0.59907,0.89271 0.8989,1.84985 0.8989,2.87203 0,0.59862 -0.11785,1.23339 -0.35248,1.9025 -0.27033,0.7402 -0.61102,1.28042 -1.02204,1.6211 -0.8691,0.75186 -1.88509,1.38618 -3.04797,1.90263 -1.25683,0.54023 -2.41366,0.81072 -3.4708,0.81072 -0.23494,0 -0.76063,-0.63765 -1.57679,-1.91187 -0.81645,-1.27423 -1.22445,-2.05241 -1.22445,-2.33439 0,-0.10559 0.0645,-0.16989 0.19379,-0.19363 0.82205,-0.1528 1.65001,-0.30544 2.484,-0.45823 1.03354,-0.32873 1.55046,-0.8691 1.55046,-1.62081 0,-0.51676 -0.29953,-1.11613 -0.89844,-1.79719 -1.06894,-1.18618 -1.62716,-1.81474 -1.6736,-1.88539 -0.59922,-0.84549 -0.89876,-1.73789 -0.89876,-2.67794 0,-1.7618 0.89256,-3.25931 2.67795,-4.49254 1.59721,-1.09224 3.30637,-1.63851 5.127,-1.63851 0.18758,0 0.65202,0.6316 1.39192,1.89387 0.74021,1.26288 1.10978,2.00006 1.10978,2.21124"
       style="opacity:1;fill:#000000;fill-opacity:1;fill-rule:nonzero;stroke:none;stroke-width:0.38897464;stroke-opacity:1"
       id="path3933-4-7-1"
       inkscape:connector-curvature="0" />
    <path
       d="m 344.83593,691.19047 c 0,2.04363 -1.15124,3.06552 -3.45311,3.06552 -0.98679,0 -1.80324,-0.25824 -2.44906,-0.77516 -0.7045,-0.56381 -1.05697,-1.32732 -1.05697,-2.29036 0,-0.91615 0.36397,-1.66786 1.09237,-2.25527 0.66942,-0.54007 1.47377,-0.81025 2.41366,-0.81025 0.91615,0 1.70886,0.27608 2.37827,0.82795 0.71646,0.58756 1.07484,1.33322 1.07484,2.23757 m -0.45808,13.09048 c 0,0.85745 0.0177,2.135 0.0529,3.83174 0.0352,1.69767 0.0527,2.96902 0.0527,3.81496 0,0.24643 -0.14675,0.39349 -0.44038,0.44008 -0.39953,0.0706 -1.29797,0.10559 -2.69549,0.10559 -1.40962,0 -2.31396,-0.035 -2.71319,-0.10559 -0.25839,-0.0466 -0.41738,-0.12344 -0.47562,-0.22889 -0.0238,-0.0469 -0.0356,-0.22298 -0.0356,-0.52856 0,-0.81056 0.0179,-2.02896 0.0531,-3.65582 0.0351,-1.6267 0.0529,-2.85115 0.0529,-3.67351 0,-3.33555 -0.12934,-5.99035 -0.38772,-7.96363 -0.0237,-0.18759 -0.0352,-0.31088 -0.0352,-0.36973 0,-0.23509 0.15838,-0.35248 0.47561,-0.35248 0.32889,0 0.83098,0.0354 1.50645,0.10544 0.6753,0.0706 1.18345,0.10605 1.52398,0.10605 0.34038,0 0.85155,-0.0294 1.53276,-0.0883 0.68106,-0.0585 1.19208,-0.0877 1.53276,-0.0877 0.28199,0 0.42298,0.11724 0.42298,0.35202 0,0.0474 -0.012,0.1587 -0.0354,0.33479 -0.2587,2.29051 -0.38758,4.94516 -0.38758,7.96363"
       style="opacity:1;fill:#000000;fill-opacity:1;fill-rule:nonzero;stroke:none;stroke-width:0.38897464;stroke-opacity:1"
       id="path3937-2-5-2"
       inkscape:connector-curvature="0" />
    <path
       d="m 358.50336,703.69943 c 0,-0.92764 -0.28819,-1.74682 -0.86365,-2.45753 -0.57562,-0.71071 -1.32128,-1.06621 -2.23727,-1.06621 -0.9281,0 -1.69145,0.36443 -2.29067,1.09239 -0.56337,0.68151 -0.84551,1.49191 -0.84551,2.43135 0,0.95155 0.28214,1.76816 0.84551,2.44891 0.59922,0.72856 1.36257,1.09254 2.29067,1.09254 0.91599,0 1.67345,-0.36398 2.27251,-1.09254 0.55232,-0.68075 0.82841,-1.49736 0.82841,-2.44891 m 5.77871,0 c 0,2.67825 -0.81918,4.85107 -2.45798,6.51892 -1.63835,1.66786 -3.7909,2.50186 -6.45675,2.50186 -2.5843,0 -4.71038,-0.82205 -6.37823,-2.46676 -1.66786,-1.64425 -2.50185,-3.75853 -2.50185,-6.34253 0,-2.72484 0.7989,-4.93579 2.39626,-6.63344 1.59736,-1.69705 3.75868,-2.54588 6.48382,-2.54588 2.65419,0 4.80357,0.83113 6.44798,2.49309 1.64425,1.6621 2.46675,3.8204 2.46675,6.47474"
       style="opacity:1;fill:#000000;fill-opacity:1;fill-rule:nonzero;stroke:none;stroke-width:0.38897464;stroke-opacity:1"
       id="path3941-4-9-7"
       inkscape:connector-curvature="0" />
    <path
       d="m 383.54835,711.85698 c 0,0.31708 -0.16459,0.49908 -0.49332,0.54582 -0.32888,0.0471 -1.18618,0.0705 -2.5722,0.0705 -1.47996,0 -2.39625,-0.0349 -2.74844,-0.10559 -0.35247,-0.0703 -0.52887,-0.31088 -0.52887,-0.72235 0,-0.55202 0.0177,-1.38588 0.0531,-2.50187 0.0351,-1.11568 0.053,-1.95572 0.053,-2.5194 0,-0.43416 -0.012,-1.08345 -0.0352,-1.94665 -0.0236,-0.86336 -0.0354,-1.51234 -0.0354,-1.94697 0,-1.609 -0.69876,-2.41365 -2.09657,-2.41365 -0.45823,0 -0.99225,0.19984 -1.60311,0.59907 -0.65837,0.44641 -0.98679,0.88709 -0.98679,1.32111 l 0,9.51425 c 0,0.38758 -0.1823,0.60482 -0.54597,0.65156 -0.41133,0.0471 -1.25093,0.0705 -2.51971,0.0705 -1.37406,0 -2.26707,-0.0349 -2.6778,-0.10559 -0.36427,-0.0587 -0.54596,-0.25233 -0.54596,-0.58137 0,-0.91599 0.006,-2.29611 0.0171,-4.14035 0.0118,-1.84379 0.0177,-3.22996 0.0177,-4.15776 0,-2.92483 -0.22857,-3.92811 -0.6868,-5.59612 -0.024,-0.10574 -0.0356,-0.19378 -0.0356,-0.26428 0,-0.18789 0.0882,-0.31709 0.26428,-0.38758 0.74036,-0.082 1.72685,-0.21133 2.96008,-0.38757 1.86739,-0.36383 2.91863,-0.54612 3.15372,-0.54612 0.12903,0 0.22903,0.39635 0.29953,1.1892 0.0194,0.2183 0.22147,-0.10347 0.29938,-0.10347 -0.12919,0 0.50225,-0.408 1.89417,-1.22476 1.39177,-0.81615 2.60987,-1.2243 3.65581,-1.2243 1.49116,0 2.73664,0.35233 3.73508,1.05699 1.11538,0.8104 1.67375,1.93803 1.67375,3.3826 l 0,5.62047 c 0,0.76366 0.006,1.90581 0.0177,3.42678 0.0115,1.52126 0.0174,2.66327 0.0174,3.42692"
       style="opacity:1;fill:#000000;fill-opacity:1;fill-rule:nonzero;stroke:none;stroke-width:0.38897464;stroke-opacity:1"
       id="path3945-4-2-0"
       inkscape:connector-curvature="0" />
    <path
       d="m 396.0846,701.72623 c 0,-0.72811 -0.25869,-1.36817 -0.77516,-1.92019 -0.51737,-0.55217 -1.13368,-0.82825 -1.85015,-0.82825 -0.7399,0 -1.35076,0.31133 -1.83228,0.93384 -0.44673,0.57562 -0.66956,1.25093 -0.66956,2.02593 0,0.31723 0.16429,0.47577 0.49347,0.47577 0.8691,0 2.21987,-0.13494 4.05201,-0.40512 0.38772,-0.0587 0.58167,-0.15264 0.58167,-0.28198 m 6.16629,1.07484 c 0,1.18632 -0.38213,1.86194 -1.14534,2.02608 -0.12935,0.0236 -1.34472,0.15279 -3.64658,0.38772 -1.38632,0.15265 -3.4534,0.33464 -6.20184,0.54582 0.16414,0.7638 0.66351,1.34547 1.49736,1.7447 0.68136,0.32873 1.45637,0.49302 2.32562,0.49302 1.04533,0 2.09642,-0.28183 3.15386,-0.84565 0.44628,-0.28199 0.89255,-0.56367 1.33898,-0.84565 0.24673,0.11754 0.66078,0.71646 1.2423,1.79689 0.58121,1.08119 0.87181,1.768 0.87181,2.06163 0,0.0822 -0.0879,0.21739 -0.26427,0.40527 -1.43323,1.53867 -3.65869,2.30778 -6.67747,2.30778 -2.79548,0 -5.0506,-0.81616 -6.7652,-2.44876 -1.76195,-1.65636 -2.643,-3.87003 -2.643,-6.64236 0,-2.70155 0.78695,-4.91552 2.36086,-6.64222 1.62111,-1.78509 3.77034,-2.67794 6.44828,-2.67794 2.25527,0 4.1697,0.8222 5.74377,2.4666 1.57405,1.64456 2.36086,3.60015 2.36086,5.86707"
       style="opacity:1;fill:#000000;fill-opacity:1;fill-rule:nonzero;stroke:none;stroke-width:0.38897464;stroke-opacity:1"
       id="path3949-3-2-9"
       inkscape:connector-curvature="0" />
    <path
       d="m 413.9982,701.72623 c 0,-0.72811 -0.25839,-1.36817 -0.77501,-1.92019 -0.51707,-0.55217 -1.13353,-0.82825 -1.85014,-0.82825 -0.73975,0 -1.35062,0.31133 -1.83215,0.93384 -0.44657,0.57562 -0.6694,1.25093 -0.6694,2.02593 0,0.31723 0.16414,0.47577 0.49302,0.47577 0.8688,0 2.21987,-0.13494 4.05246,-0.40512 0.38773,-0.0587 0.58122,-0.15264 0.58122,-0.28198 m 6.16674,1.07484 c 0,1.18632 -0.38229,1.86194 -1.14549,2.02608 -0.12919,0.0236 -1.34502,0.15279 -3.64688,0.38772 -1.38587,0.15265 -3.45341,0.33464 -6.20184,0.54582 0.16459,0.7638 0.66351,1.34547 1.49766,1.7447 0.68106,0.32873 1.45606,0.49302 2.32562,0.49302 1.04534,0 2.09658,-0.28183 3.15371,-0.84565 0.44628,-0.28199 0.89239,-0.56367 1.33927,-0.84565 0.24628,0.11754 0.66079,0.71646 1.24186,1.79689 0.58166,1.08119 0.87227,1.768 0.87227,2.06163 0,0.0822 -0.0882,0.21739 -0.26428,0.40527 -1.43338,1.53867 -3.65914,2.30778 -6.67761,2.30778 -2.79534,0 -5.05046,-0.81616 -6.76551,-2.44876 -1.76195,-1.65636 -2.64255,-3.87003 -2.64255,-6.64236 0,-2.70155 0.7865,-4.91552 2.36072,-6.64222 1.62096,-1.78509 3.77033,-2.67794 6.44842,-2.67794 2.25527,0 4.16925,0.8222 5.74346,2.4666 1.57391,1.64456 2.36117,3.60015 2.36117,5.86707"
       style="opacity:1;fill:#000000;fill-opacity:1;fill-rule:nonzero;stroke:none;stroke-width:0.38897464;stroke-opacity:1"
       id="path3953-7-8-3"
       inkscape:connector-curvature="0" />
    <path
       d="m 433.33861,701.39132 c 0,0.45808 -0.25279,0.68727 -0.75761,0.68727 -0.22313,0 -0.54898,-0.0145 -0.97756,-0.0442 -0.42918,-0.0289 -0.74929,-0.044 -0.96048,-0.044 -0.97498,0 -1.63834,0.15294 -1.99083,0.45823 -0.35233,0.30558 -0.52872,0.92219 -0.52872,1.84999 0,0.50497 0.009,1.27165 0.0266,2.29914 0.0179,1.02794 0.0263,1.79447 0.0263,2.29914 0,0.34097 0.0234,0.84883 0.0705,1.52413 0.0467,0.67561 0.0705,1.17771 0.0705,1.50658 0,0.28154 -0.19394,0.44009 -0.58121,0.47533 -0.56382,0.0469 -1.42717,0.0703 -2.5899,0.0703 -1.11599,0 -2.00868,-0.0349 -2.67795,-0.10558 -0.38772,-0.0465 -0.58121,-0.24039 -0.58121,-0.58137 0,-0.9396 0.005,-2.34589 0.017,-4.21933 0.012,-1.87344 0.0179,-3.27988 0.0179,-4.21993 0,-2.76009 -0.25278,-5.03275 -0.75729,-6.8183 -0.024,-0.10574 -0.0356,-0.19364 -0.0356,-0.26413 0,-0.17624 0.0882,-0.29364 0.26428,-0.35249 0.64581,-0.0706 1.59131,-0.19968 2.83664,-0.38772 1.85559,-0.36368 2.81303,-0.54597 2.87187,-0.54597 0.21135,0 0.34598,0.36988 0.40513,1.10994 0.0587,0.7399 0.16429,1.10978 0.31739,1.10978 -0.1649,0 0.31693,-0.30815 1.44441,-0.92477 1.12763,-0.61661 2.21396,-0.92507 3.25931,-0.92507 0.65791,0 0.98664,0.14114 0.98664,0.42282 0,0.34083 -0.0351,0.82236 -0.1056,1.44457 -0.0705,0.66971 -0.11149,1.15138 -0.12313,1.44486 0,0.34084 0.006,0.79286 0.0176,1.35652 0.0233,0.69346 0.0351,1.15139 0.0351,1.37422"
       style="opacity:1;fill:#000000;fill-opacity:1;fill-rule:nonzero;stroke:none;stroke-width:0.38897464;stroke-opacity:1"
       id="path3957-6-9-6"
       inkscape:connector-curvature="0" />
    <path
       d="m 445.26171,698.11443 c 0,0.11755 -0.0882,0.27609 -0.26428,0.47563 -0.32919,-0.082 -0.65791,-0.1233 -0.98679,-0.1233 -0.69314,0 -1.2742,0.1528 -1.74422,0.45808 -0.56337,0.35263 -0.8455,0.85185 -0.8455,1.49751 0,0.41148 0.29953,0.934 0.8986,1.56816 0.90433,0.95125 1.46224,1.59176 1.67372,1.92033 0.59906,0.89271 0.89859,1.84985 0.89859,2.87203 0,0.59862 -0.118,1.23339 -0.35248,1.9025 -0.27033,0.7402 -0.61086,1.28042 -1.02187,1.6211 -0.86953,0.75186 -1.88523,1.38618 -3.0481,1.90263 -1.25683,0.54023 -2.41366,0.81072 -3.4708,0.81072 -0.2351,0 -0.76049,-0.63765 -1.57678,-1.91187 -0.81615,-1.27423 -1.22446,-2.05241 -1.22446,-2.33439 0,-0.10559 0.0646,-0.16989 0.19394,-0.19363 0.82175,-0.1528 1.64985,-0.30544 2.48415,-0.45823 1.03354,-0.32873 1.55046,-0.8691 1.55046,-1.62081 0,-0.51676 -0.29982,-1.11613 -0.89844,-1.79719 -1.06894,-1.18618 -1.62716,-1.81474 -1.6742,-1.88539 -0.59892,-0.84549 -0.89816,-1.73789 -0.89816,-2.67794 0,-1.7618 0.89225,-3.25931 2.67765,-4.49254 1.59765,-1.09224 3.30635,-1.63851 5.127,-1.63851 0.18789,0 0.652,0.6316 1.39218,1.89387 0.73991,1.26288 1.10979,2.00006 1.10979,2.21124"
       style="opacity:1;fill:#000000;fill-opacity:1;fill-rule:nonzero;stroke:none;stroke-width:0.38897464;stroke-opacity:1"
       id="path3961-8-7-0"
       inkscape:connector-curvature="0" />
    <path
       style="opacity:1;fill:#000000;fill-opacity:1;stroke:#000000;stroke-width:0.3111338;stroke-opacity:1"
       d="m 242.19956,698.25881 -2.08696,1.31517 0.14441,2.61745 c -1.03236,0.79264 -1.00353,0.79712 -1.78539,1.83764 l -2.75971,-0.0787 -1.17291,2.20553 1.38232,2.21279 c -0.39541,1.19295 -0.43808,1.35571 -0.59347,2.63609 l -2.4624,1.08371 0,2.27401 2.41678,1.32936 c 0.16949,0.76125 0.2626,1.22219 0.56648,1.94247 l -1.28599,3.06389 1.22033,1.89727 2.66297,-0.16932 c 0.65252,0.82665 0.90468,1.06778 1.62225,1.56569 l 0.11548,2.93316 2.03952,1.19599 2.44139,-1.45949 c 0.89539,0.37821 1.49187,0.46122 2.396,0.65932 l 1.33171,2.3789 2.27467,-0.0237 1.47638,-2.50011 c 0.85848,-0.0822 1.20985,-0.21357 1.96068,-0.52116 l 2.75636,1.29958 2.11067,-1.31457 -0.0743,-2.76412 c 0.75987,-0.54846 0.95926,-0.81552 1.60645,-1.64357 l 2.79735,0.0308 1.24343,-2.3004 -0.92927,-2.21583 c 0.39471,-1.0305 0.73645,-2.63107 0.83993,-3.65931 l -3.29677,0.0152 c -0.48912,6.0953 -5.57574,10.79402 -11.69062,10.79915 -6.48271,-3e-5 -11.73798,-5.2553 -11.73802,-11.738 0.006,-4.63478 2.73945,-8.83179 6.9756,-10.71225 l -0.295,-3.04672 z"
       id="path27946-6"
       inkscape:connector-curvature="0"
       sodipodi:nodetypes="cccccccccccccccccccccccccccccccccccccc" />
  </g>
</svg>
